<?xml version="1.0" standalone="no"?>
<!DOCTYPE svg PUBLIC "-//W3C//DTD SVG 20010904//EN"
 "http://www.w3.org/TR/2001/REC-SVG-20010904/DTD/svg10.dtd">
<svg version="1.0" xmlns="http://www.w3.org/2000/svg"
 width="657.000000pt" height="525.000000pt" viewBox="0 0 657.000000 525.000000"
 preserveAspectRatio="xMidYMid meet">
<metadata>
Created by potrace 1.14, written by Peter Selinger 2001-2017
</metadata>
<g transform="translate(0.000000,525.000000) scale(0.100000,-0.100000)"
fill="#000000" stroke="none">
<path d="M1480 4973 c-271 -42 -469 -121 -653 -259 -373 -280 -568 -758 -518
-1269 54 -550 335 -1147 786 -1670 114 -131 371 -385 515 -506 431 -365 1004
-719 1519 -939 l124 -53 96 39 c354 143 892 452 1251 719 379 282 717 611 973
947 306 403 521 869 599 1298 28 156 31 460 5 600 -103 553 -497 959 -1047
1077 -129 27 -439 25 -572 -5 -207 -46 -392 -125 -573 -247 -283 -190 -514
-459 -692 -807 l-39 -76 -38 76 c-179 363 -483 695 -802 875 -250 142 -501
208 -772 206 -76 -1 -148 -3 -162 -6z m423 -184 c80 -12 264 -62 305 -83 15
-7 52 -21 82 -29 56 -17 307 -170 365 -224 115 -106 226 -218 260 -263 22 -29
51 -65 64 -79 33 -36 96 -130 115 -172 17 -37 111 -203 137 -239 9 -15 21 -21
31 -18 8 4 35 48 60 100 25 51 92 163 148 248 87 130 127 178 249 301 80 81
162 154 182 163 20 9 45 26 57 36 45 42 202 131 282 159 248 88 358 111 531
111 226 0 414 -46 626 -152 90 -45 333 -243 333 -272 0 -6 22 -37 49 -69 55
-67 144 -223 159 -282 6 -22 20 -74 31 -115 42 -157 46 -193 45 -375 -1 -141
-6 -203 -23 -285 -11 -58 -26 -130 -32 -160 -12 -63 -72 -253 -102 -320 -97
-219 -250 -498 -319 -582 -15 -18 -28 -37 -28 -43 -1 -16 -195 -264 -267 -341
-180 -193 -377 -381 -453 -434 -51 -35 -154 -121 -158 -131 -2 -5 -8 -9 -13
-9 -10 0 -187 -130 -227 -167 -13 -12 -34 -25 -46 -29 -11 -4 -54 -30 -95 -58
-143 -99 -157 -108 -210 -132 -29 -14 -67 -35 -85 -48 -66 -50 -340 -192 -571
-297 -138 -62 -142 -61 -391 62 -100 49 -185 89 -190 89 -9 0 -51 24 -247 138
-49 29 -92 52 -96 52 -4 0 -63 37 -130 82 -68 46 -142 93 -165 106 -22 13 -74
49 -114 80 -41 31 -102 76 -135 100 -34 24 -91 69 -127 100 -35 31 -71 62 -81
67 -59 36 -111 81 -239 208 -202 201 -275 282 -391 437 -56 74 -108 144 -118
155 -25 32 -71 104 -71 113 0 4 -14 30 -32 58 -82 125 -188 331 -188 363 0 9
-6 25 -13 36 -20 30 -94 237 -122 344 -59 221 -78 455 -51 641 21 140 81 324
142 431 24 43 44 83 44 88 0 16 144 184 206 239 95 85 240 177 329 207 44 15
91 33 105 40 26 13 127 38 215 54 71 13 293 13 378 0z"/>
<path d="M2394 4042 c-150 -110 -211 -262 -201 -497 9 -181 45 -273 136 -340
75 -54 100 -112 108 -253 l6 -112 37 0 37 0 5 118 c6 142 20 174 107 251 103
89 136 182 135 376 -1 185 -39 299 -136 401 -85 90 -162 108 -234 56z"/>
<path d="M3800 3973 c0 -16 -5 -71 -10 -123 -5 -52 -14 -212 -21 -355 -14
-315 -10 -349 56 -427 48 -55 70 -110 80 -200 l6 -58 38 0 38 0 5 68 c6 79 31
140 81 200 20 24 42 62 48 85 17 61 1 501 -27 776 -14 132 -23 27 -26 -299 -2
-184 -7 -341 -11 -348 -6 -9 -12 -10 -21 -3 -10 8 -14 95 -19 339 -6 319 -17
433 -31 332 -4 -25 -10 -183 -14 -352 -7 -291 -15 -354 -36 -319 -4 6 -12 167
-17 358 -5 191 -12 349 -14 352 -3 2 -8 2 -11 -2 -8 -7 -23 -370 -23 -564 -1
-133 -2 -143 -20 -143 -18 0 -19 17 -26 355 -4 195 -11 355 -16 355 -5 0 -9
-12 -9 -27z"/>
<path d="M2079 2746 c-62 -22 -97 -54 -128 -119 -42 -85 -56 -184 -41 -283 18
-119 57 -190 126 -230 129 -76 291 -17 345 124 42 111 37 297 -12 393 -52 104
-180 155 -290 115z m141 -91 c62 -32 98 -148 86 -283 -11 -139 -65 -207 -159
-199 -54 5 -79 24 -110 82 -19 35 -22 57 -22 165 0 111 3 130 23 168 39 73
115 102 182 67z"/>
<path d="M2649 2746 c-62 -22 -97 -54 -128 -119 -42 -85 -56 -184 -41 -283 18
-119 57 -190 126 -230 129 -76 291 -17 345 124 42 111 37 297 -12 393 -52 104
-180 155 -290 115z m141 -91 c62 -32 98 -148 86 -283 -11 -139 -65 -207 -159
-199 -54 5 -79 24 -110 82 -19 35 -22 57 -22 165 0 111 3 130 23 168 39 73
115 102 182 67z"/>
<path d="M4913 2749 c-48 -14 -99 -68 -113 -118 -30 -112 24 -184 182 -245
107 -41 138 -68 138 -122 0 -46 -8 -63 -41 -79 -39 -21 -98 -19 -136 5 -32 19
-63 66 -63 95 0 11 -12 15 -50 15 l-50 0 0 -105 0 -105 50 0 c47 0 50 2 50 25
l0 24 36 -24 c118 -80 286 -12 309 124 18 105 -48 188 -190 241 -114 44 -135
61 -135 111 0 53 42 82 113 76 56 -5 83 -26 99 -79 11 -36 13 -38 55 -38 l43
0 0 100 0 100 -45 0 c-42 0 -45 -2 -45 -27 l0 -26 -22 21 c-44 40 -112 52
-185 31z"/>
<path d="M1380 2420 l0 -330 50 0 50 0 0 145 0 145 125 0 125 0 0 45 0 45
-125 0 -125 0 0 95 0 95 160 0 160 0 0 45 0 45 -210 0 -210 0 0 -330z"/>
<path d="M3090 2421 l0 -331 121 0 c154 0 200 12 254 64 62 61 88 135 89 261
1 155 -45 259 -136 307 -38 20 -61 23 -185 26 l-143 4 0 -331z m299 205 c46
-44 63 -109 59 -224 -5 -166 -52 -222 -184 -222 l-74 0 0 241 0 241 84 -3 c78
-4 87 -6 115 -33z"/>
<path d="M3710 2705 l0 -45 55 0 55 0 0 -240 0 -240 -55 0 -55 0 0 -45 0 -45
160 0 160 0 0 45 0 45 -55 0 -55 0 0 240 0 240 55 0 55 0 0 45 0 45 -160 0
-160 0 0 -45z"/>
<path d="M4230 2420 l0 -330 210 0 210 0 0 45 0 45 -160 0 -160 0 0 100 0 100
125 0 125 0 0 45 0 45 -125 0 -125 0 0 95 0 95 160 0 160 0 0 45 0 45 -210 0
-210 0 0 -330z"/>
<path d="M2426 1898 c-4 -24 -11 -92 -17 -153 -5 -60 -19 -172 -30 -249 -39
-287 -19 -351 111 -349 60 1 97 22 116 68 19 46 18 95 -6 266 -19 135 -49 403
-50 442 0 14 -10 17 -59 17 l-60 0 -5 -42z"/>
<path d="M3886 1888 c-4 -24 -11 -92 -17 -153 -5 -60 -19 -172 -30 -249 -39
-287 -19 -351 111 -349 60 1 97 22 116 68 19 46 18 95 -6 266 -19 135 -49 403
-50 442 0 14 -10 17 -59 17 l-60 0 -5 -42z"/>
</g>
</svg>
